<svg width="22" height="26" viewBox="0 0 22 26" fill="none" xmlns="http://www.w3.org/2000/svg">
<path d="M17.6406 4.16981L12.883 0.109015C12.8191 0.0545073 12.7553 0.0272537 12.6914 0V4.33333H17.7683C17.7364 4.27883 17.7045 4.22432 17.6406 4.16981Z" fill="white"/>
<path d="M16.8594 15.2179C17.1722 15.2179 17.4849 15.2449 17.7692 15.2719V5.90909H12.339C11.9125 5.90909 11.5429 5.58531 11.5429 5.15359V0H0.796061C0.3696 0 0 0.350768 0 0.7555V20.9112C0 21.3159 0.341169 21.6667 0.796061 21.6667H10.6047C10.5762 21.5048 10.5762 21.3429 10.5762 21.181C10.5762 17.8892 13.3909 15.2179 16.8594 15.2179ZM4.40677 4.39809H8.27335C8.69982 4.39809 9.06942 4.74886 9.06942 5.15359C9.06942 5.55832 8.72825 5.90909 8.27335 5.90909H4.40677C3.98031 5.90909 3.61071 5.58531 3.61071 5.15359C3.61071 4.74886 3.98031 4.39809 4.40677 4.39809ZM4.40677 8.41843H13.3625C13.7889 8.41843 14.1585 8.74222 14.1585 9.17393C14.1585 9.57866 13.8174 9.92943 13.3625 9.92943H4.40677C3.98031 9.92943 3.61071 9.60565 3.61071 9.17393C3.61071 8.74222 3.98031 8.41843 4.40677 8.41843ZM4.40677 12.4118H13.3625C13.7889 12.4118 14.1585 12.7356 14.1585 13.1673C14.1585 13.572 13.8174 13.9228 13.3625 13.9228H4.40677C3.98031 13.9228 3.61071 13.599 3.61071 13.1673C3.61071 12.7626 3.98031 12.4118 4.40677 12.4118ZM8.61452 17.9431H4.40677C3.98031 17.9431 3.61071 17.5924 3.61071 17.1876C3.61071 16.7829 3.95188 16.4321 4.40677 16.4321H8.61452C9.04098 16.4321 9.41058 16.7559 9.41058 17.1876C9.41058 17.5924 9.04098 17.9431 8.61452 17.9431Z" fill="white"/>
<path d="M16.9246 16.4667C14.1246 16.4667 11.8477 18.6045 11.8477 21.2333C11.8477 23.8622 14.1246 26 16.9246 26C19.7246 26 22.0015 23.8622 22.0015 21.2333C22.0015 18.6045 19.7246 16.4667 16.9246 16.4667ZM19.2938 20.8L16.8323 23.1111C16.6784 23.2556 16.4323 23.3422 16.2169 23.3422C16.0015 23.3422 15.7861 23.2556 15.6015 23.1111L14.3707 21.9556C14.0323 21.6378 14.0323 21.1178 14.3707 20.8289C14.7092 20.5111 15.263 20.5111 15.5707 20.8289L16.1861 21.4067L18.0323 19.6733C18.3707 19.3556 18.9246 19.3556 19.2323 19.6733C19.6323 19.9911 19.6323 20.4822 19.2938 20.8Z" fill="white"/>
</svg>
