<svg width="45" height="46" viewBox="0 0 45 46" fill="none" xmlns="http://www.w3.org/2000/svg">
<path d="M0 10.3048C0 4.78196 4.47715 0.30481 10 0.30481H35C40.5228 0.30481 45 4.78196 45 10.3048V35.3048C45 40.8277 40.5228 45.3048 35 45.3048H10C4.47715 45.3048 0 40.8277 0 35.3048V10.3048Z" fill="#E3001B"/>
<path d="M34.1468 19.7757L23.1436 10.4414C22.8302 10.1573 22.4224 10 21.9994 10C21.5764 10 21.1686 10.1573 20.8552 10.4414L9.85319 19.7759C9.58454 20.0193 9.36983 20.3162 9.22289 20.6476C9.07594 20.979 9.00002 21.3375 9.00001 21.7V35.1364C9.00001 35.3654 9.09097 35.5851 9.2529 35.747C9.41482 35.909 9.63445 36 9.86347 36L17.1 36C17.6523 36 18.1 35.5523 18.1 35V29.5C18.1 28.7668 18.8177 28.1724 19.5512 28.1724H24.4476C25.1812 28.1724 25.9 28.7668 25.9 29.5V35C25.9 35.5523 26.3477 36 26.9 36H34.1365C34.3656 36 34.5852 35.909 34.7471 35.747C34.909 35.5851 35 35.3654 35 35.1364V21.7C34.9999 21.3375 34.924 20.979 34.7771 20.6476C34.6301 20.3162 34.4154 20.0192 34.1468 19.7757Z" fill="white"/>
</svg>
