<svg width="45" height="46" viewBox="0 0 45 46" fill="none" xmlns="http://www.w3.org/2000/svg">
<path d="M0 10.3048C0 4.78196 4.47715 0.30481 10 0.30481H35C40.5228 0.30481 45 4.78196 45 10.3048V35.3048C45 40.8277 40.5228 45.3048 35 45.3048H10C4.47715 45.3048 0 40.8277 0 35.3048V10.3048Z" fill="#E3001B"/>
<path fill-rule="evenodd" clip-rule="evenodd" d="M34.5822 27.2859H33.9736C35.6501 27.2859 37 28.5645 37 30.1422V30.7153C37 31.3507 36.4589 31.8573 35.7909 31.8573H9.20912C8.54071 31.8573 8 31.3459 8 30.7153V30.1422C8 28.5653 9.35498 27.2859 11.0264 27.2859H10.4178C11.082 27.2859 11.6249 26.7737 11.6249 26.1419V19.2857C11.6249 13.6025 16.4938 9 22.5001 9C28.5079 9 33.3754 13.605 33.3754 19.2857V26.1419C33.3754 26.7776 33.9154 27.2859 34.5822 27.2859ZM18.2704 33.0001H26.7287C26.7287 35.2091 24.8351 37 22.4995 37C20.1639 37 18.2704 35.2091 18.2704 33.0001Z" fill="white"/>
</svg>
