<svg width="40" height="40" viewBox="0 0 40 40" fill="none" xmlns="http://www.w3.org/2000/svg">
<path d="M0 10C0 4.47715 4.47715 0 10 0H30C35.5228 0 40 4.47715 40 10V30C40 35.5228 35.5228 40 30 40H10C4.47715 40 0 35.5228 0 30V10Z" fill="#2C353D"/>
<path d="M32.1468 16.7757L21.1436 7.44135C20.8302 7.15731 20.4224 6.99998 19.9994 6.99998C19.5764 6.99998 19.1686 7.15731 18.8552 7.44135L7.85318 16.7759C7.58453 17.0192 7.36982 17.3162 7.22287 17.6476C7.07593 17.979 7.00001 18.3375 6.99999 18.7V32.1364C6.99999 32.3654 7.09096 32.585 7.25288 32.747C7.41481 32.9089 7.63444 32.9999 7.86346 33L15.1 33C15.6523 33 16.1 32.5523 16.1 32V26.5C16.1 25.7668 16.8177 25.1724 17.5512 25.1724H22.4476C23.1812 25.1724 23.9 25.7668 23.9 26.5V32C23.9 32.5523 24.3477 33 24.9 33H32.1365C32.3655 32.9999 32.5852 32.9089 32.7471 32.747C32.909 32.585 33 32.3654 33 32.1364V18.7C32.9999 18.3375 32.924 17.979 32.777 17.6476C32.6301 17.3161 32.4154 17.0192 32.1468 16.7757Z" fill="white"/>
</svg>
