<svg width="40" height="41" viewBox="0 0 40 41" fill="none" xmlns="http://www.w3.org/2000/svg">
<path d="M0 10.8048C0 5.28196 4.47715 0.80481 10 0.80481H30C35.5228 0.80481 40 5.28196 40 10.8048V30.8048C40 36.3277 35.5228 40.8048 30 40.8048H10C4.47715 40.8048 0 36.3277 0 30.8048V10.8048Z" fill="#2C353D"/>
<path fill-rule="evenodd" clip-rule="evenodd" d="M29.6671 25.1315H29.1424C30.5877 25.1315 31.7514 26.2731 31.7514 27.6817V28.1935C31.7514 28.7608 31.2849 29.2131 30.7091 29.2131H7.79374C7.21753 29.2131 6.7514 28.7565 6.7514 28.1935V27.6817C6.7514 26.2739 7.91949 25.1315 9.36037 25.1315H8.83575C9.40833 25.1315 9.87633 24.6741 9.87633 24.1101V17.9885C9.87633 12.9142 14.0737 8.80481 19.2515 8.80481C24.4306 8.80481 28.6267 12.9164 28.6267 17.9885V24.1101C28.6267 24.6777 29.0922 25.1315 29.6671 25.1315ZM15.6052 30.2335H22.8968C22.8968 32.2058 21.2644 33.8048 19.251 33.8048C17.2376 33.8048 15.6052 32.2058 15.6052 30.2335Z" fill="white"/>
</svg>
