<svg xmlns="http://www.w3.org/2000/svg" xmlns:xlink="http://www.w3.org/1999/xlink" width="40" zoomAndPan="magnify" viewBox="0 0 30 30.000001" height="40" preserveAspectRatio="xMidYMid meet" version="1.0"><defs><clipPath id="d7d8c34c22"><path d="M 0.484375 0 L 29.515625 0 L 29.515625 29.03125 L 0.484375 29.03125 Z M 0.484375 0 " clip-rule="nonzero"/></clipPath></defs><g clip-path="url(#d7d8c34c22)"><path fill="#FFFFFF" d="M 26.613281 0 L 3.386719 0 C 3.003906 0 2.632812 0.0742188 2.277344 0.222656 C 1.921875 0.367188 1.605469 0.578125 1.335938 0.851562 C 1.0625 1.121094 0.851562 1.4375 0.703125 1.792969 C 0.558594 2.148438 0.484375 2.519531 0.484375 2.902344 L 0.484375 26.128906 C 0.484375 26.515625 0.558594 26.882812 0.703125 27.238281 C 0.851562 27.597656 1.0625 27.910156 1.335938 28.183594 C 1.605469 28.453125 1.921875 28.664062 2.277344 28.8125 C 2.632812 28.957031 3.003906 29.03125 3.386719 29.03125 L 26.613281 29.03125 C 26.996094 29.03125 27.367188 28.957031 27.722656 28.8125 C 28.078125 28.664062 28.394531 28.453125 28.664062 28.183594 C 28.9375 27.910156 29.148438 27.597656 29.296875 27.238281 C 29.441406 26.882812 29.515625 26.515625 29.515625 26.128906 L 29.515625 2.902344 C 29.515625 2.519531 29.441406 2.148438 29.296875 1.792969 C 29.148438 1.4375 28.9375 1.121094 28.664062 0.851562 C 28.394531 0.578125 28.078125 0.367188 27.722656 0.222656 C 27.367188 0.0742188 26.996094 0 26.613281 0 Z M 3.386719 1.933594 L 26.613281 1.933594 C 26.742188 1.933594 26.863281 1.960938 26.984375 2.007812 C 27.101562 2.058594 27.207031 2.128906 27.296875 2.21875 C 27.386719 2.308594 27.457031 2.414062 27.507812 2.53125 C 27.554688 2.652344 27.582031 2.773438 27.582031 2.902344 L 27.582031 14.515625 L 21.386719 9.871094 C 21.195312 9.726562 20.976562 9.664062 20.738281 9.679688 C 20.496094 9.695312 20.292969 9.789062 20.121094 9.960938 L 12.828125 17.253906 L 8.859375 13.789062 C 8.667969 13.621094 8.445312 13.539062 8.191406 13.546875 C 7.933594 13.554688 7.71875 13.652344 7.539062 13.832031 L 2.417969 18.953125 L 2.417969 2.902344 C 2.417969 2.773438 2.445312 2.652344 2.492188 2.53125 C 2.542969 2.414062 2.613281 2.308594 2.703125 2.21875 C 2.792969 2.128906 2.898438 2.058594 3.015625 2.007812 C 3.136719 1.960938 3.257812 1.933594 3.386719 1.933594 Z M 2.417969 26.128906 L 2.417969 21.691406 L 8.269531 15.839844 L 21.132812 27.097656 L 3.386719 27.097656 C 3.257812 27.097656 3.136719 27.070312 3.015625 27.023438 C 2.898438 26.972656 2.792969 26.902344 2.703125 26.8125 C 2.613281 26.722656 2.542969 26.617188 2.492188 26.5 C 2.445312 26.378906 2.417969 26.257812 2.417969 26.128906 Z M 26.613281 27.097656 L 24.074219 27.097656 L 14.285156 18.535156 L 20.898438 11.921875 L 27.582031 16.933594 L 27.582031 26.128906 C 27.582031 26.257812 27.554688 26.378906 27.507812 26.5 C 27.457031 26.617188 27.386719 26.722656 27.296875 26.8125 C 27.207031 26.902344 27.101562 26.972656 26.984375 27.023438 C 26.863281 27.070312 26.742188 27.097656 26.613281 27.097656 Z M 26.613281 27.097656 " fill-opacity="1" fill-rule="nonzero"/></g><path fill="#FFFFFF" d="M 10.160156 11.613281 C 10.414062 11.613281 10.667969 11.589844 10.917969 11.539062 C 11.164062 11.488281 11.40625 11.414062 11.644531 11.316406 C 11.878906 11.222656 12.101562 11.101562 12.3125 10.960938 C 12.523438 10.820312 12.71875 10.660156 12.898438 10.480469 C 13.078125 10.300781 13.238281 10.105469 13.378906 9.890625 C 13.519531 9.679688 13.640625 9.457031 13.738281 9.222656 C 13.835938 8.988281 13.910156 8.746094 13.957031 8.496094 C 14.007812 8.246094 14.03125 7.996094 14.03125 7.742188 C 14.03125 7.488281 14.007812 7.234375 13.957031 6.988281 C 13.910156 6.738281 13.835938 6.496094 13.738281 6.261719 C 13.640625 6.027344 13.519531 5.800781 13.378906 5.589844 C 13.238281 5.378906 13.078125 5.183594 12.898438 5.003906 C 12.71875 4.824219 12.523438 4.664062 12.3125 4.523438 C 12.101562 4.382812 11.878906 4.261719 11.644531 4.164062 C 11.40625 4.070312 11.164062 3.996094 10.917969 3.945312 C 10.667969 3.894531 10.414062 3.871094 10.160156 3.871094 C 9.90625 3.871094 9.65625 3.894531 9.40625 3.945312 C 9.15625 3.996094 8.914062 4.070312 8.679688 4.164062 C 8.445312 4.261719 8.222656 4.382812 8.011719 4.523438 C 7.800781 4.664062 7.605469 4.824219 7.425781 5.003906 C 7.246094 5.183594 7.082031 5.378906 6.941406 5.589844 C 6.800781 5.800781 6.683594 6.027344 6.585938 6.261719 C 6.488281 6.496094 6.414062 6.738281 6.363281 6.988281 C 6.316406 7.234375 6.289062 7.488281 6.289062 7.742188 C 6.289062 7.996094 6.316406 8.246094 6.363281 8.496094 C 6.414062 8.746094 6.488281 8.988281 6.585938 9.222656 C 6.683594 9.457031 6.800781 9.679688 6.941406 9.890625 C 7.082031 10.105469 7.246094 10.300781 7.425781 10.480469 C 7.605469 10.660156 7.800781 10.820312 8.011719 10.960938 C 8.222656 11.101562 8.445312 11.222656 8.679688 11.316406 C 8.914062 11.414062 9.15625 11.488281 9.40625 11.539062 C 9.65625 11.589844 9.90625 11.613281 10.160156 11.613281 Z M 10.160156 5.804688 C 10.417969 5.804688 10.664062 5.855469 10.902344 5.953125 C 11.140625 6.050781 11.347656 6.191406 11.53125 6.375 C 11.710938 6.554688 11.851562 6.765625 11.949219 7 C 12.046875 7.238281 12.097656 7.484375 12.097656 7.742188 C 12.097656 8 12.046875 8.246094 11.949219 8.484375 C 11.851562 8.71875 11.710938 8.929688 11.53125 9.109375 C 11.347656 9.292969 11.140625 9.433594 10.902344 9.53125 C 10.664062 9.628906 10.417969 9.675781 10.160156 9.675781 C 9.90625 9.675781 9.65625 9.628906 9.421875 9.53125 C 9.183594 9.433594 8.972656 9.292969 8.792969 9.109375 C 8.609375 8.929688 8.472656 8.71875 8.375 8.484375 C 8.273438 8.246094 8.226562 8 8.226562 7.742188 C 8.226562 7.484375 8.273438 7.238281 8.375 7 C 8.472656 6.765625 8.609375 6.554688 8.792969 6.375 C 8.972656 6.191406 9.183594 6.050781 9.421875 5.953125 C 9.65625 5.855469 9.90625 5.804688 10.160156 5.804688 Z M 10.160156 5.804688 " fill-opacity="1" fill-rule="nonzero"/></svg>