<svg width="22" height="8" viewBox="0 0 22 8" fill="none" xmlns="http://www.w3.org/2000/svg">
<g id="Menu Button">
<path id="Ellipse 28" d="M4.37528 7.32553C6.03346 7.32553 7.39417 6.00442 7.39417 4.3546C7.39417 2.70478 6.03346 1.38367 4.37528 1.38367C2.71709 1.38367 1.35638 2.70478 1.35638 4.3546C1.35638 6.00442 2.71709 7.32553 4.37528 7.32553Z" fill="white" stroke="#2C353D"/>
<path id="Ellipse 29" d="M11.4282 7.32553C13.0864 7.32553 14.4471 6.00442 14.4471 4.3546C14.4471 2.70478 13.0864 1.38367 11.4282 1.38367C9.77004 1.38367 8.40933 2.70478 8.40933 4.3546C8.40933 6.00442 9.77004 7.32553 11.4282 7.32553Z" fill="white" stroke="#2C353D"/>
<path id="Ellipse 30" d="M18.4811 7.32553C20.1393 7.32553 21.5 6.00442 21.5 4.3546C21.5 2.70478 20.1393 1.38367 18.4811 1.38367C16.8229 1.38367 15.4622 2.70478 15.4622 4.3546C15.4622 6.00442 16.8229 7.32553 18.4811 7.32553Z" fill="white" stroke="#2C353D"/>
</g>
</svg>
