<svg xmlns="http://www.w3.org/2000/svg" xmlns:xlink="http://www.w3.org/1999/xlink" width="40" zoomAndPan="magnify" viewBox="0 0 30 30.000001" height="40" preserveAspectRatio="xMidYMid meet" version="1.0"><defs><clipPath id="133ffffe90"><path d="M 0.484375 0 L 29.515625 0 L 29.515625 29.03125 L 0.484375 29.03125 Z M 0.484375 0 " clip-rule="nonzero"/></clipPath><clipPath id="d5dc2ab503"><path d="M 12 12 L 18 12 L 18 17.003906 L 12 17.003906 Z M 12 12 " clip-rule="nonzero"/></clipPath><clipPath id="9b68654bfc"><path d="M 6.285156 12 L 12 12 L 12 17.003906 L 6.285156 17.003906 Z M 6.285156 12 " clip-rule="nonzero"/></clipPath><clipPath id="309950de2c"><path d="M 18 12 L 23.707031 12 L 23.707031 17.003906 L 18 17.003906 Z M 18 12 " clip-rule="nonzero"/></clipPath></defs><g clip-path="url(#133ffffe90)"><path fill="#ffffff" d="M 0.484375 0 L 29.515625 0 L 29.515625 29.03125 L 0.484375 29.03125 Z M 0.484375 0 " fill-opacity="1" fill-rule="nonzero"/><path fill="#ffffff" d="M 0.484375 0 L 29.515625 0 L 29.515625 29.03125 L 0.484375 29.03125 Z M 0.484375 0 " fill-opacity="1" fill-rule="nonzero"/></g><g clip-path="url(#d5dc2ab503)"><path fill="#e3001b" d="M 14.996094 12.027344 C 15.324219 12.027344 15.644531 12.089844 15.949219 12.21875 C 16.253906 12.34375 16.523438 12.523438 16.753906 12.757812 C 16.988281 12.988281 17.167969 13.257812 17.296875 13.5625 C 17.421875 13.867188 17.484375 14.1875 17.484375 14.515625 C 17.484375 14.847656 17.421875 15.164062 17.296875 15.46875 C 17.167969 15.773438 16.988281 16.042969 16.753906 16.277344 C 16.523438 16.507812 16.253906 16.6875 15.949219 16.816406 C 15.644531 16.941406 15.324219 17.003906 14.996094 17.003906 C 14.667969 17.003906 14.347656 16.941406 14.042969 16.816406 C 13.738281 16.6875 13.46875 16.507812 13.238281 16.277344 C 13.003906 16.042969 12.824219 15.773438 12.695312 15.46875 C 12.570312 15.164062 12.507812 14.847656 12.507812 14.515625 C 12.507812 14.1875 12.570312 13.867188 12.695312 13.5625 C 12.824219 13.257812 13.003906 12.988281 13.238281 12.757812 C 13.46875 12.523438 13.738281 12.34375 14.042969 12.21875 C 14.347656 12.089844 14.667969 12.027344 14.996094 12.027344 Z M 14.996094 12.027344 " fill-opacity="1" fill-rule="nonzero"/></g><g clip-path="url(#9b68654bfc)"><path fill="#e3001b" d="M 8.773438 12.027344 C 9.105469 12.027344 9.421875 12.089844 9.726562 12.21875 C 10.03125 12.34375 10.300781 12.523438 10.535156 12.757812 C 10.769531 12.988281 10.949219 13.257812 11.074219 13.5625 C 11.199219 13.867188 11.261719 14.1875 11.261719 14.515625 C 11.261719 14.847656 11.199219 15.164062 11.074219 15.46875 C 10.949219 15.773438 10.769531 16.042969 10.535156 16.277344 C 10.300781 16.507812 10.03125 16.6875 9.726562 16.816406 C 9.421875 16.941406 9.105469 17.003906 8.773438 17.003906 C 8.445312 17.003906 8.128906 16.941406 7.824219 16.816406 C 7.519531 16.6875 7.25 16.507812 7.015625 16.277344 C 6.78125 16.042969 6.601562 15.773438 6.476562 15.46875 C 6.347656 15.164062 6.285156 14.847656 6.285156 14.515625 C 6.285156 14.1875 6.347656 13.867188 6.476562 13.5625 C 6.601562 13.257812 6.78125 12.988281 7.015625 12.757812 C 7.25 12.523438 7.519531 12.34375 7.824219 12.21875 C 8.128906 12.089844 8.445312 12.027344 8.773438 12.027344 Z M 8.773438 12.027344 " fill-opacity="1" fill-rule="nonzero"/></g><g clip-path="url(#309950de2c)"><path fill="#e3001b" d="M 21.21875 12.027344 C 21.546875 12.027344 21.863281 12.089844 22.167969 12.21875 C 22.472656 12.34375 22.742188 12.523438 22.976562 12.757812 C 23.210938 12.988281 23.390625 13.257812 23.515625 13.5625 C 23.644531 13.867188 23.707031 14.1875 23.707031 14.515625 C 23.707031 14.847656 23.644531 15.164062 23.515625 15.46875 C 23.390625 15.773438 23.210938 16.042969 22.976562 16.277344 C 22.742188 16.507812 22.472656 16.6875 22.167969 16.816406 C 21.863281 16.941406 21.546875 17.003906 21.21875 17.003906 C 20.886719 17.003906 20.570312 16.941406 20.265625 16.816406 C 19.960938 16.6875 19.691406 16.507812 19.457031 16.277344 C 19.222656 16.042969 19.042969 15.773438 18.917969 15.46875 C 18.792969 15.164062 18.730469 14.847656 18.730469 14.515625 C 18.730469 14.1875 18.792969 13.867188 18.917969 13.5625 C 19.042969 13.257812 19.222656 12.988281 19.457031 12.757812 C 19.691406 12.523438 19.960938 12.34375 20.265625 12.21875 C 20.570312 12.089844 20.886719 12.027344 21.21875 12.027344 Z M 21.21875 12.027344 " fill-opacity="1" fill-rule="nonzero"/></g></svg>