<svg width="26" height="26" viewBox="0 0 26 26" fill="none" xmlns="http://www.w3.org/2000/svg">
<path d="M25.1468 9.77572L14.1436 0.441352C13.8302 0.157307 13.4224 -1.58691e-05 12.9994 -1.58691e-05C12.5764 -1.58691e-05 12.1686 0.157307 11.8552 0.441352L0.85318 9.77585C0.584527 10.0192 0.369819 10.3162 0.222874 10.6476C0.0759291 10.979 6.06061e-06 11.3375 -8.05855e-06 11.7V25.1364C-8.06114e-06 25.3654 0.0909561 25.585 0.252883 25.747C0.414809 25.9089 0.63444 25.9999 0.863456 26L8.09999 26C8.65228 26 9.09999 25.5523 9.09999 25V19.5C9.09999 18.7668 9.81771 18.1724 10.5512 18.1724H15.4476C16.1812 18.1724 16.9 18.7668 16.9 19.5V25C16.9 25.5523 17.3477 26 17.9 26H25.1365C25.3655 25.9999 25.5852 25.9089 25.7471 25.747C25.909 25.585 26 25.3654 26 25.1364V11.7C25.9999 11.3375 25.924 10.979 25.777 10.6476C25.6301 10.3161 25.4154 10.0192 25.1468 9.77572Z" fill="white"/>
</svg>
