<svg width="26" height="25" viewBox="0 0 26 25" fill="none" xmlns="http://www.w3.org/2000/svg">
<path fill-rule="evenodd" clip-rule="evenodd" d="M23.6671 16.3267H23.1425C24.5877 16.3267 25.7515 17.4683 25.7515 18.8769V19.3887C25.7515 19.956 25.285 20.4083 24.7091 20.4083H1.79381C1.21759 20.4083 0.751465 19.9517 0.751465 19.3887V18.8769C0.751465 17.4691 1.91955 16.3267 3.36043 16.3267H2.83581C3.40839 16.3267 3.87639 15.8693 3.87639 15.3052V9.18364C3.87639 4.10941 8.07374 0 13.2516 0C18.4307 0 22.6268 4.11159 22.6268 9.18364V15.3052C22.6268 15.8729 23.0923 16.3267 23.6671 16.3267ZM9.60523 21.4287H16.8969C16.8969 23.401 15.2645 25 13.2511 25C11.2376 25 9.60523 23.401 9.60523 21.4287Z" fill="white"/>
</svg>
