<svg width="40" height="41" viewBox="0 0 40 41" fill="none" xmlns="http://www.w3.org/2000/svg">
<g id="Home Button">
<path id="Home Background" d="M0 10.8048C0 5.28196 4.47715 0.80481 10 0.80481H30C35.5228 0.80481 40 5.28196 40 10.8048V30.8048C40 36.3277 35.5228 40.8048 30 40.8048H10C4.47715 40.8048 0 36.3277 0 30.8048V10.8048Z" fill="#E3001B"/>
<g id="Vector">
<path d="M32.1468 17.5805L21.1436 8.24616C20.8302 7.96212 20.4224 7.80479 19.9994 7.80479C19.5764 7.80479 19.1686 7.96212 18.8552 8.24616L7.85318 17.5807C7.58453 17.8241 7.36982 18.121 7.22287 18.4524C7.07593 18.7838 7.00001 19.1423 6.99999 19.5048V32.9412C6.99999 33.1702 7.09096 33.3899 7.25288 33.5518C7.41481 33.7138 7.63444 33.8048 7.86346 33.8048L15.1 33.8048C15.6523 33.8048 16.1 33.3571 16.1 32.8048V27.3048C16.1 26.5716 16.8177 25.9772 17.5512 25.9772H22.4476C23.1812 25.9772 23.9 26.5716 23.9 27.3048V32.8048C23.9 33.3571 24.3477 33.8048 24.9 33.8048H32.1365C32.3655 33.8048 32.5852 33.7138 32.7471 33.5518C32.909 33.3899 33 33.1702 33 32.9412V19.5048C32.9999 19.1423 32.924 18.7838 32.777 18.4524C32.6301 18.121 32.4154 17.824 32.1468 17.5805Z" fill="white"/>
</g>
</g>
</svg>
