<svg width="30" height="30" viewBox="0 0 30 30" fill="none" xmlns="http://www.w3.org/2000/svg">
<path d="M0 15C0 23.2843 6.71581 30 15.0002 30C23.2846 30 30 23.2843 30 15C30 6.71572 23.2846 0 15.0002 0C6.71581 0 0 6.71572 0 15ZM15.9149 9.5353L22.9969 16.6191C23.5019 17.1218 23.5019 17.9409 22.9969 18.4459C22.4926 18.9497 21.6743 18.9497 21.1693 18.4459L15.0006 12.2761L8.83033 18.4462C8.3257 18.9512 7.50736 18.9497 7.00274 18.4462C6.75024 18.1945 6.62399 17.8628 6.62399 17.5315C6.62399 17.2002 6.75024 16.8696 7.00274 16.6168L14.0847 9.53492C14.5901 9.0303 15.4096 9.0303 15.9149 9.5353Z" fill="white"/>
</svg>
